<mxfile host="app.diagrams.net" agent="Mozilla/5.0 (Macintosh; Intel Mac OS X 10_15_7) AppleWebKit/537.36 (KHTML, like Gecko) Chrome/134.0.0.0 Safari/537.36" version="26.0.16">
  <diagram name="Page-1" id="gCmPUOXGhQcxKehQVGMK">
    <mxGraphModel dx="1434" dy="731" grid="1" gridSize="10" guides="1" tooltips="1" connect="1" arrows="1" fold="1" page="1" pageScale="1" pageWidth="850" pageHeight="1100" math="0" shadow="0">
      <root>
        <mxCell id="0" />
        <mxCell id="1" parent="0" />
        <mxCell id="9nDD6oZFU34gLlzTbC-f-3" value="" style="edgeStyle=orthogonalEdgeStyle;rounded=0;orthogonalLoop=1;jettySize=auto;html=1;" edge="1" parent="1" source="9nDD6oZFU34gLlzTbC-f-1" target="9nDD6oZFU34gLlzTbC-f-2">
          <mxGeometry relative="1" as="geometry" />
        </mxCell>
        <mxCell id="9nDD6oZFU34gLlzTbC-f-1" value="Start app" style="ellipse;whiteSpace=wrap;html=1;" vertex="1" parent="1">
          <mxGeometry x="365" y="50" width="70" height="60" as="geometry" />
        </mxCell>
        <mxCell id="9nDD6oZFU34gLlzTbC-f-5" style="edgeStyle=orthogonalEdgeStyle;rounded=0;orthogonalLoop=1;jettySize=auto;html=1;exitX=0.5;exitY=1;exitDx=0;exitDy=0;entryX=0.5;entryY=0;entryDx=0;entryDy=0;" edge="1" parent="1" source="9nDD6oZFU34gLlzTbC-f-2" target="9nDD6oZFU34gLlzTbC-f-4">
          <mxGeometry relative="1" as="geometry" />
        </mxCell>
        <mxCell id="9nDD6oZFU34gLlzTbC-f-2" value="LogIn" style="whiteSpace=wrap;html=1;" vertex="1" parent="1">
          <mxGeometry x="340" y="150" width="120" height="60" as="geometry" />
        </mxCell>
        <mxCell id="9nDD6oZFU34gLlzTbC-f-4" value="Already exist account ?" style="rhombus;whiteSpace=wrap;html=1;" vertex="1" parent="1">
          <mxGeometry x="347.5" y="240" width="105" height="80" as="geometry" />
        </mxCell>
      </root>
    </mxGraphModel>
  </diagram>
</mxfile>
